<?xml version="1.0" encoding="UTF-8"?>
<svg version="1.1" xmlns="http://www.w3.org/2000/svg" width="512" height="512">
<path d="M0 0 C0.768601 -0.00623996 1.537202 -0.01247993 2.32909393 -0.01890898 C4.89484172 -0.03481581 7.45963642 -0.02224428 10.02539062 -0.00964355 C11.86873935 -0.01506571 13.71208373 -0.0221889 15.55541992 -0.03088379 C20.55541624 -0.04910888 25.55508218 -0.04205293 30.55508423 -0.02936745 C35.789336 -0.0192356 41.02355961 -0.02863364 46.2578125 -0.03491211 C55.04757767 -0.04218796 63.83720837 -0.0326024 72.62695312 -0.0135498 C82.78698248 0.00821878 92.94669076 0.00116737 103.10671234 -0.02085543 C111.8321482 -0.03901115 120.55748745 -0.04156689 129.2829361 -0.03110075 C134.49328372 -0.02486679 139.70348045 -0.02402758 144.91381836 -0.0372467 C149.81245951 -0.04880703 154.71068696 -0.04077601 159.60928345 -0.01766968 C161.40637526 -0.01238358 163.20350192 -0.01389467 165.00057983 -0.02272034 C167.45528259 -0.03366361 169.90866261 -0.01992806 172.36328125 0 C173.07320976 -0.00892289 173.78313828 -0.01784577 174.51457977 -0.02703905 C181.32662826 0.0801149 185.362708 3.44089958 190.00274658 8.07507324 C190.69806488 8.76475189 191.39338318 9.45443054 192.10977173 10.16500854 C192.85181854 10.91110382 193.59386536 11.6571991 194.35839844 12.42590332 C195.1558548 13.21985504 195.95331116 14.01380676 196.77493286 14.83181763 C199.39991862 17.4480266 202.0175514 20.07145277 204.63476562 22.69543457 C206.45956672 24.51888813 208.2846646 26.34204473 210.11004639 28.16491699 C213.92949138 31.98141643 217.74539662 35.8014048 221.55859375 39.62414551 C225.96401403 44.04046423 230.37661392 48.449511 234.79298139 52.85488033 C239.04873884 57.10046455 243.2988467 61.35165324 247.54659271 65.60525513 C249.35206987 67.41206753 251.15903687 69.21739245 252.96750641 71.02120972 C255.49069145 73.5393255 258.00739277 76.06374649 260.52246094 78.58996582 C261.27260468 79.3360611 262.02274841 80.08215637 262.79562378 80.8508606 C263.47966278 81.54053925 264.16370178 82.2302179 264.86846924 82.9407959 C265.76105879 83.83451653 265.76105879 83.83451653 266.67168045 84.74629211 C269.51780293 88.06681028 270.43133705 90.81862145 270.43890953 95.16882133 C270.44535842 96.10663535 270.45180732 97.04444937 270.45845163 98.01068199 C270.45380582 99.55122708 270.45380582 99.55122708 270.44906616 101.12289429 C270.45359728 102.21647062 270.45812839 103.31004696 270.46279681 104.43676198 C270.47549256 108.11401177 270.47381709 111.79111445 270.47216797 115.46838379 C270.47814996 118.09960115 270.48495474 120.73081675 270.49252319 123.36203003 C270.5091393 129.77507821 270.51463301 136.18808963 270.51574795 142.60115753 C270.51669811 147.81364043 270.52080678 153.02611118 270.5271492 158.23859024 C270.54476305 173.01502744 270.55398781 187.79143558 270.55248825 202.56788336 C270.55240834 203.36456022 270.55232843 204.16123708 270.55224609 204.98205566 C270.55216433 205.77970455 270.55208257 206.57735344 270.55199833 207.39917351 C270.55118533 220.32796879 270.57032627 233.25664759 270.59852283 246.18540917 C270.6272425 259.45869875 270.64106364 272.73193151 270.63933527 286.00525296 C270.63867107 293.45798798 270.64417673 300.9106009 270.66569138 308.36330795 C270.68389113 314.70842058 270.68826053 321.05335574 270.67467253 327.39848314 C270.66813668 330.63577371 270.67021571 333.8726525 270.68537903 337.10992432 C270.70075695 340.61992511 270.69157163 344.12902689 270.67611694 347.63900757 C270.68640407 348.66157618 270.6966912 349.6841448 270.70729005 350.73770034 C270.65124921 356.48357055 270.21845503 360.08089312 266.18164062 364.50793457 C260.9332139 369.29045006 256.06745643 369.07477186 249.32617188 369.01586914 C248.23088669 369.0221091 247.1356015 369.02834907 246.00712585 369.03477812 C242.335912 369.05073664 238.66535944 369.038092 234.99414062 369.0255127 C232.36262627 369.03093251 229.73111494 369.03805437 227.09960938 369.04675293 C220.69346524 369.06453272 214.28750865 369.06070066 207.88135719 369.04910237 C202.67463264 369.04006616 197.46796062 369.03884485 192.26123047 369.04319763 C191.51997893 369.04381056 190.7787274 369.0444235 190.01501369 369.045055 C188.50914127 369.04633391 187.00326886 369.04763077 185.49739647 369.04894537 C171.37920735 369.06034958 157.26112214 369.04723999 143.14295006 369.0257439 C131.03079488 369.00787304 118.91879304 369.01097719 106.80664062 369.02941895 C92.73872859 369.0508285 78.67090762 369.05925096 64.60298157 369.04696989 C63.10267132 369.0456957 61.60236106 369.04443822 60.10205078 369.04319763 C58.99479975 369.04227198 58.99479975 369.04227198 57.86518002 369.04132763 C52.66514333 369.03787497 47.46516445 369.04370123 42.26513672 369.05311584 C35.26535452 369.06551041 28.2658669 369.05667682 21.26611328 369.03353882 C18.69499188 369.02824339 16.12384614 369.02977965 13.55273438 369.03858948 C10.04719499 369.04949492 6.54258904 369.03584025 3.03710938 369.01586914 C1.50530281 369.02925347 1.50530281 369.02925347 -0.05744934 369.04290819 C-7.3463123 368.96217941 -10.96650717 367.40659416 -16.16161346 362.1262207 C-18.76234002 356.44630758 -18.36910499 350.76806378 -18.32629395 344.61535645 C-18.33090427 343.17901731 -18.33725807 341.7426829 -18.34520292 340.30635834 C-18.36190161 336.36362184 -18.3536476 332.42127259 -18.34125805 328.4785347 C-18.33221203 324.22488022 -18.34617505 319.97129259 -18.35717773 315.71765137 C-18.37497235 307.38644373 -18.37111879 299.05538017 -18.35952717 290.72416687 C-18.35049683 283.95375383 -18.34926712 277.1833812 -18.35362244 270.41296387 C-18.35423537 269.44968343 -18.3548483 268.486403 -18.35547981 267.49393225 C-18.3567587 265.53709983 -18.35805555 263.58026742 -18.35937017 261.62343502 C-18.37077873 243.27044534 -18.35765794 224.91753556 -18.33616871 206.56455898 C-18.31829748 190.81387333 -18.32140151 175.06330559 -18.33984375 159.31262207 C-18.36124559 141.02569893 -18.36968007 122.73884584 -18.3573947 104.45191193 C-18.35612049 102.50224305 -18.354863 100.55257417 -18.35362244 98.60290527 C-18.35300533 97.6436091 -18.35238823 96.68431293 -18.35175243 95.69594717 C-18.34829747 88.93298252 -18.35413102 82.17006227 -18.36354065 75.40710449 C-18.37475438 67.1662718 -18.37173379 58.92559152 -18.35041767 50.68477631 C-18.3398988 46.47945262 -18.3357996 42.27438314 -18.34901428 38.06906128 C-18.36092684 34.2199289 -18.35439483 30.37128655 -18.33310407 26.52219868 C-18.32863314 25.12928407 -18.3309154 23.73632812 -18.34060723 22.34344006 C-18.42511268 9.19029842 -18.42511268 9.19029842 -13.81835938 4.50793457 C-9.34098846 0.70848573 -5.71448407 -0.0718237 0 0 Z " fill="#D9DCE1" transform="translate(129.818359375,71.4920654296875)"/>
<path d="M0 0 C5.00619949 4.19529182 9.70815221 8.56871152 14.31225586 13.19873047 C15.00578156 13.89211014 15.69930725 14.58548981 16.41384888 15.29988098 C18.6832284 17.56995171 20.94905495 19.8435333 23.21484375 22.1171875 C24.79645764 23.70066839 26.37829389 25.28392721 27.96034241 26.86697388 C32.10696645 31.01740092 36.25057751 35.1708232 40.39355469 39.32489014 C44.62838222 43.5699796 48.8660712 47.8122105 53.10351562 52.0546875 C61.40513655 60.36700662 69.70357522 68.68249489 78 77 C75 77 75 77 72 76 C70.17600593 75.90359818 68.34874527 75.86458787 66.5222168 75.8581543 C65.40062668 75.85111984 64.27903656 75.84408539 63.12345886 75.83683777 C61.91095963 75.83267349 60.69846039 75.82850922 59.44921875 75.82421875 C56.88866364 75.80102155 54.32811674 75.77690426 51.76757812 75.75195312 C47.72534165 75.71557568 43.6832577 75.68580208 39.64086914 75.67407227 C35.7432796 75.65860281 31.84657476 75.61839749 27.94921875 75.57421875 C26.13957893 75.57708138 26.13957893 75.57708138 24.29338074 75.58000183 C17.91832633 75.48705198 13.80392128 75.36998631 9 71 C4.9638777 66.52754015 3.88119174 63.44339736 3.84228516 57.49047852 C3.83202301 56.36243301 3.82176086 55.23438751 3.81118774 54.07215881 C3.80388641 52.85338547 3.79658508 51.63461212 3.7890625 50.37890625 C3.76100107 47.80923834 3.73233666 45.23957696 3.703125 42.66992188 C3.66065365 38.60997938 3.62386665 34.55007805 3.59863281 30.48999023 C3.57366552 26.57774259 3.52522709 22.66593255 3.4765625 18.75390625 C3.47330963 17.53715714 3.47005676 16.32040802 3.46670532 15.06678772 C3.45013885 13.93559006 3.43357239 12.8043924 3.41650391 11.63891602 C3.40841705 10.6442482 3.4003302 9.64958038 3.39199829 8.62477112 C2.94125225 5.6066325 1.92205335 4.31142644 0 2 C0 1.34 0 0.68 0 0 Z " fill="#56AAFE" transform="translate(316,77)"/>
<path d="M0 0 C3.93214301 1.58939426 6.33020346 4.16342502 9.25 7.1875 C12.40157059 10.41430702 15.55922707 13.57818663 19 16.5 C24.30141743 21.01724944 29.11934375 26.0385976 34 31 C32.38307323 35.08127903 29.45723356 37.80604354 26.375 40.8125 C25.83520508 41.34584961 25.29541016 41.87919922 24.73925781 42.42871094 C21.23081415 45.87020755 17.62802455 49.16150423 13.875 52.3359375 C11.03339261 54.85786406 8.452031 57.62365277 5.859375 60.3984375 C2.78473871 63.04675867 2.78473871 63.04675867 0 63 C-2.578125 60.91015625 -2.578125 60.91015625 -5.25 58.0625 C-6.14203125 57.12535156 -7.0340625 56.18820313 -7.953125 55.22265625 C-8.96632812 54.12244141 -8.96632812 54.12244141 -10 53 C-5.83201899 47.9663614 -1.45719319 43.45586145 3.375 39.0625 C4.33599609 38.17981445 4.33599609 38.17981445 5.31640625 37.27929688 C6.87431658 35.8492747 8.43668698 34.42411391 10 33 C8.38468385 29.5803033 6.58748974 27.34800823 3.875 24.6875 C3.07964844 23.90503906 2.28429687 23.12257812 1.46484375 22.31640625 C-1.44354962 19.58316176 -4.46100337 17.0139271 -7.56640625 14.5078125 C-9 13 -9 13 -9 10 C-7.28515625 8.02734375 -7.28515625 8.02734375 -5.0625 5.9375 C-2.13565586 3.26299207 -2.13565586 3.26299207 0 0 Z " fill="#FEFEFE" transform="translate(201,177)"/>
<path d="M0 0 C15.84 0 31.68 0 48 0 C48 5.28 48 10.56 48 16 C32.16 16 16.32 16 0 16 C0 10.72 0 5.44 0 0 Z " fill="#FFFFFF" transform="translate(240,224)"/>
</svg>
